<?xml version="1.0" encoding="UTF-8"?>
<!DOCTYPE svg PUBLIC "-//W3C//DTD SVG 1.1//EN" "http://www.w3.org/Graphics/SVG/1.1/DTD/svg11.dtd">
<!-- Creator: CorelDRAW X7 -->
<svg xmlns="http://www.w3.org/2000/svg" xml:space="preserve" width="14.7496mm" height="17.2996mm" version="1.1" style="shape-rendering:geometricPrecision; text-rendering:geometricPrecision; image-rendering:optimizeQuality; fill-rule:evenodd; clip-rule:evenodd"
viewBox="0 0 33 38"
 xmlns:xlink="http://www.w3.org/1999/xlink">
 <defs>
  <style type="text/css">
   <![CDATA[
    .str1 {stroke:#FEFEFE;stroke-width:0.758703}
    .str0 {stroke:#FEFEFE;stroke-width:0.758703;stroke-linecap:round;stroke-linejoin:round}
    .fil0 {fill:none}
   ]]>
  </style>
 </defs>
 <g id="Слой_x0020_1">
  <metadata id="CorelCorpID_0Corel-Layer"/>
  <polyline id="Stroke-1" class="fil0 str0" points="16,34 0,34 0,0 21,0 25,5 25,20 "/>
  <path id="Stroke-3" class="fil0 str1" d="M7 7c0,1 0,2 -1,2 -1,0 -1,-1 -1,-2 0,0 0,-1 1,-1 1,0 1,1 1,1z"/>
  <line id="Stroke-5" class="fil0 str0" x1="10" y1="7" x2="20" y2= "7" />
  <path id="Stroke-7" class="fil0 str1" d="M7 13c0,1 0,1 -1,1 -1,0 -1,0 -1,-1 0,-1 0,-1 1,-1 1,0 1,0 1,1z"/>
  <line id="Stroke-9" class="fil0 str0" x1="10" y1="13" x2="20" y2= "13" />
  <path id="Stroke-11" class="fil0 str1" d="M7 19c0,0 0,1 -1,1 -1,0 -1,-1 -1,-1 0,-1 0,-2 1,-2 1,0 1,1 1,2z"/>
  <line id="Stroke-13" class="fil0 str0" x1="10" y1="19" x2="20" y2= "19" />
  <path id="Stroke-15" class="fil0 str1" d="M7 24c0,1 0,1 -1,1 -1,0 -1,0 -1,-1 0,-1 0,-1 1,-1 1,0 1,0 1,1z"/>
  <line id="Stroke-17" class="fil0 str0" x1="10" y1="24" x2="16" y2= "24" />
  <path id="Stroke-21" class="fil0 str0" d="M32 29c0,5 -4,9 -9,9 -5,0 -8,-4 -8,-9 0,-5 3,-9 8,-9 5,0 9,4 9,9z"/>
  <polyline id="Stroke-23" class="fil0 str0" points="19,29 22,33 28,25 "/>
 </g>
</svg>
