<?xml version="1.0" encoding="UTF-8"?>
<!DOCTYPE svg PUBLIC "-//W3C//DTD SVG 1.1//EN" "http://www.w3.org/Graphics/SVG/1.1/DTD/svg11.dtd">
<!-- Creator: CorelDRAW X7 -->
<svg xmlns="http://www.w3.org/2000/svg" xml:space="preserve" width="56.0456mm" height="10.1086mm" version="1.1" style="shape-rendering:geometricPrecision; text-rendering:geometricPrecision; image-rendering:optimizeQuality; fill-rule:evenodd; clip-rule:evenodd"
viewBox="0 0 778 140"
 xmlns:xlink="http://www.w3.org/1999/xlink">
 <defs>
  <style type="text/css">
   <![CDATA[
    .fil0 {fill:#AA2B2B}
   ]]>
  </style>
 </defs>
 <g id="Слой_x0020_1">
  <metadata id="CorelCorpID_0Corel-Layer"/>
  <g id="_2267239735600">
   <g id="Symbols">
    <g id="logo">
     <path id="Combined-Shape" class="fil0" d="M36 0l126 0c7,0 12,6 10,14l-30 113c-2,7 -10,13 -17,13l-109 0c3,-13 9,-38 18,-57 15,-38 36,-59 60,-63l-14 0c0,0 0,0 0,0 -1,0 -2,0 -2,0l0 0 0 0 -7 0c-24,0 -53,24 -71,63l18 -69c2,-8 10,-14 18,-14zm78 48c1,-1 2,-1 4,-1 7,0 14,3 19,8 7,7 10,18 11,26 0,-14 -3,-36 -14,-48 -6,-7 -13,-11 -22,-11 -45,0 -69,65 -78,101l26 0c2,-8 4,-16 7,-24 11,-32 27,-49 47,-51zm15 17c-5,-5 -10,-7 -17,-7 -5,-1 -8,1 -12,3 12,7 21,20 22,35l19 0c0,-8 -3,-23 -12,-31z"/>
     <path id="Fill-1" class="fil0" d="M440 136l16 0 21 -79c4,-14 -4,-25 -18,-25l-57 0 -5 17 58 0c5,0 7,3 6,8l-21 79zm-68 0l16 0c0,0 6,-24 6,-25 1,-2 2,-3 3,-4l33 -32c4,-4 7,-10 8,-15l2 -6 -17 0 -1 6c-1,1 -1,3 -3,5l-33 32c-4,4 -6,8 -7,14 0,1 -7,25 -7,25zm-6 -25c-4,14 -18,25 -32,25l-36 0c-14,0 -22,-11 -18,-25l14 -54c4,-14 18,-25 32,-25l36 0c14,0 22,11 19,25l-15 54zm-8 -62c5,0 8,3 6,8l-14 54c-1,5 -6,8 -11,8l-37 0c-5,0 -7,-3 -6,-8l15 -54c1,-5 5,-8 10,-8l37 0zm213 22l-33 32c-2,2 -2,4 -3,5l-1 6 -17 0 1 -6c2,-5 5,-11 9,-15l33 -32c1,-1 2,-3 3,-4 1,-5 -2,-8 -6,-8l-40 0c-4,0 -9,3 -10,8l-15 54c-1,5 2,8 6,8l62 0 -4 17 -61 0c-14,0 -23,-11 -19,-25l15 -54c3,-14 18,-25 31,-25l39 0c14,0 22,11 19,25 -2,5 -5,10 -9,14zm97 -71l-42 0 -5 17 43 0c5,0 7,3 6,8l-24 87c-1,4 -6,8 -10,8l-37 0c-5,0 -7,-4 -6,-8l15 -56c1,-4 5,-8 10,-8l40 0 5 -16 -40 0c-14,0 -28,11 -32,24l-15 56c-3,13 5,24 19,24l36 0c14,0 28,-11 32,-24l23 -87c4,-14 -4,-25 -18,-25zm94 111c-3,14 -18,25 -31,25l-37 0c-13,0 -22,-11 -18,-25l14 -54c4,-14 18,-25 32,-25l36 0c14,0 23,11 19,25l-15 54zm-7 -62l-38 0c-4,0 -9,3 -10,8l-15 54c-1,5 2,8 6,8l38 0c4,0 9,-3 10,-8l15 -54c1,-5 -2,-8 -6,-8zm-505 -49c-7,4 -13,10 -16,16l-39 0 4 -16 51 0zm14 21l12 0c0,1 0,3 -1,4l-29 111 -18 0 30 -109c0,-3 3,-5 6,-6zm-41 115l30 -111c1,-4 6,-8 10,-9l57 0 4 -16 -56 0c-14,0 -29,11 -32,25l-30 111 17 0z"/>
    </g>
   </g>
  </g>
 </g>
</svg>
