<?xml version="1.0" encoding="UTF-8"?>
<!DOCTYPE svg PUBLIC "-//W3C//DTD SVG 1.1//EN" "http://www.w3.org/Graphics/SVG/1.1/DTD/svg11.dtd">
<!-- Creator: CorelDRAW X7 -->
<svg xmlns="http://www.w3.org/2000/svg" xml:space="preserve" width="21.5655mm" height="3.8896mm" version="1.1" style="shape-rendering:geometricPrecision; text-rendering:geometricPrecision; image-rendering:optimizeQuality; fill-rule:evenodd; clip-rule:evenodd"
viewBox="0 0 64 12"
 xmlns:xlink="http://www.w3.org/1999/xlink">
 <defs>
  <style type="text/css">
   <![CDATA[
    .fil0 {fill:white}
   ]]>
  </style>
 </defs>
 <g id="Слой_x0020_1">
  <metadata id="CorelCorpID_0Corel-Layer"/>
  <g id="Symbols">
   <g id="logo">
    <path id="Combined-Shape" class="fil0" d="M3 0l10 0c1,0 1,1 1,1l-2 9c0,1 -1,2 -2,2l-9 0c1,-2 1,-4 2,-5 1,-3 3,-5 5,-5l-1 0c0,0 0,0 0,0 0,0 -1,0 -1,0l0 0 0 0 0 0c-2,0 -5,2 -6,5l2 -6c0,0 0,-1 1,-1zm6 4c0,0 1,0 1,0 0,0 1,0 1,1 1,0 1,1 1,2 0,-1 0,-3 -1,-4 0,-1 -1,-1 -2,-1 -3,0 -5,5 -6,8l2 0c0,0 0,-1 1,-2 0,-2 2,-4 3,-4zm2 1c-1,0 -1,0 -2,0 0,0 0,0 -1,0 1,1 2,2 2,3l2 0c0,-1 -1,-2 -1,-3z"/>
    <path id="Fill-1" class="fil0" d="M36 11l2 0 1 -6c1,-1 0,-2 -1,-2l-5 0 0 1 5 0c0,0 0,0 0,1l-2 6zm-5 0l1 0c0,0 1,-2 1,-2 0,0 0,0 0,0l2 -3c1,0 1,-1 1,-1l0 -1 -1 0 0 1c0,0 0,0 0,0l-3 3c0,0 -1,1 -1,1 0,0 0,2 0,2zm-1 -2c0,1 -1,2 -2,2l-3 0c-2,0 -2,-1 -2,-2l1 -4c1,-1 2,-2 3,-2l3 0c1,0 2,1 1,2l-1 4zm0 -5c0,0 0,0 0,1l-1 4c0,1 -1,1 -1,1l-3 0c0,0 -1,0 -1,-1l2 -4c0,-1 0,-1 0,-1l4 0zm17 2l-3 3c0,0 0,0 0,0l0 0 -1 0 0 0c0,-1 0,-1 1,-1l2 -3c0,0 0,0 0,0 1,-1 0,-1 0,-1l-3 0c-1,0 -1,0 -1,1l-1 4c0,1 0,1 0,1l5 0 0 1 -5 0c-1,0 -2,-1 -2,-2l1 -4c1,-1 2,-2 3,-2l3 0c1,0 2,1 2,2 0,0 -1,1 -1,1zm8 -6l-3 0 -1 1 4 0c0,0 0,1 0,1l-2 7c0,1 0,1 -1,1l-3 0c0,0 0,0 0,-1l1 -4c0,-1 1,-1 1,-1l3 0 1 -1 -4 0c-1,0 -2,1 -2,2l-1 4c-1,1 0,2 1,2l3 0c1,0 2,-1 3,-2l2 -7c0,-1 -1,-2 -2,-2zm8 9c0,1 -2,2 -3,2l-3 0c-1,0 -2,-1 -1,-2l1 -4c0,-1 1,-2 3,-2l3 0c1,0 1,1 1,2l-1 4zm-1 -5l-3 0c0,0 -1,0 -1,1l-1 4c0,1 0,1 1,1l3 0c0,0 0,0 1,-1l1 -4c0,-1 0,-1 -1,-1zm-41 -4c-1,0 -1,1 -2,1l-3 0 0 -1 5 0zm1 2l1 0c0,0 0,0 0,0l-3 9 -1 0 2 -9c0,0 1,0 1,0zm-4 9l3 -9c0,0 0,-1 1,-1l4 0 1 -1 -5 0c-1,0 -2,1 -3,2l-2 9 1 0z"/>
   </g>
  </g>
 </g>
</svg>
