<?xml version="1.0" encoding="UTF-8"?>
<svg width="212px" height="39px" viewBox="0 0 212 39" version="1.1" xmlns="http://www.w3.org/2000/svg" xmlns:xlink="http://www.w3.org/1999/xlink">
    <!-- Generator: sketchtool 50.2 (55047) - http://www.bohemiancoding.com/sketch -->
    <title>856578C0-C9B9-48F9-89F0-92D81FD4162F</title>
    <desc>Created with sketchtool.</desc>
    <defs></defs>
    <g id="Symbols" stroke="none" stroke-width="1" fill="none" fill-rule="evenodd">
        <g id="logo">
            <path d="M9.68,0.011 L44.075,0.011 C46.113,0.011 47.34,1.681 46.805,3.716 L38.705,34.502 C38.17,36.536 36.061,38.206 34.026,38.206 L4.311,38.206 C5.153,34.552 6.921,27.722 9.139,22.502 C13.474,12.297 19.131,6.452 25.595,5.446 L21.912,5.446 C21.828,5.447 21.741,5.455 21.655,5.457 C21.502,5.45 21.348,5.446 21.195,5.446 L21.178,5.446 L21.128,5.446 L19.31,5.446 C12.722,5.446 4.852,12.003 0,22.72 L5,3.716 C5.536,1.678 7.642,0.011 9.68,0.011 Z M30.919,12.954 C31.288,12.915 31.648,12.895 32,12.895 C34.132,12.895 35.932,13.618 37.363,15.054 C39.255,16.952 40.139,19.746 40.426,22.127 C40.424,18.241 39.45,12.328 36.466,8.879 C34.858,7.023 32.837,6.082 30.459,6.082 C18.158,6.082 11.746,23.658 9.139,33.389 L16.318,33.389 C16.768,31.411 17.377,29.14 18.184,26.859 C21.201,18.328 25.605,13.52 30.919,12.954 Z M35.063,17.568 C33.832,16.44 32.33,15.814 30.588,15.696 C29.132,15.599 28.448,15.993 27.254,16.648 C30.534,18.421 32.96,21.951 33.219,26.275 L38.355,26.275 C38.442,24.013 37.666,19.952 35.063,17.568 Z" id="Combined-Shape" fill="#fff"></path>
            <path d="M119.811,37.022 L124.236,37.022 L130.008,15.438 C131.006,11.711 128.796,8.714 125.066,8.714 L109.364,8.714 L108.161,13.284 L124.022,13.284 C125.223,13.284 125.909,14.23 125.599,15.438 L119.811,37.022 Z M101.414,37.021 L105.642,37.021 C105.642,37.021 107.352,30.563 107.425,30.299 C107.583,29.776 107.843,29.354 108.161,29.041 L117.038,20.322 C118.19,19.22 119.034,17.802 119.397,16.33 L119.873,14.651 L115.248,14.651 L114.829,16.33 C114.725,16.541 114.567,17.065 114.091,17.592 L105.221,26.309 C104.063,27.411 103.498,28.48 103.134,30.113 C103.078,30.371 101.414,37.021 101.414,37.021 Z M99.697,30.299 C98.698,33.976 94.809,37.022 91.033,37.022 L81.213,37.022 C77.428,37.022 75.116,33.976 76.118,30.299 L80.108,15.44 C81.107,11.711 84.99,8.716 88.775,8.716 L98.595,8.716 C102.429,8.716 104.683,11.711 103.686,15.44 L99.697,30.299 Z M97.596,13.284 C98.805,13.284 99.537,14.231 99.224,15.44 L95.234,30.299 C94.916,31.456 93.658,32.454 92.45,32.454 L82.211,32.454 C81,32.454 80.319,31.509 80.636,30.299 L84.571,15.44 C84.94,14.231 86.146,13.284 87.353,13.284 L97.596,13.284 Z M155.463,19.431 L146.534,28.149 C146.008,28.673 145.853,29.196 145.803,29.408 L145.327,31.088 L140.657,31.088 L141.127,29.408 C141.547,27.938 142.39,26.518 143.542,25.416 L152.527,16.646 C152.839,16.385 153.099,15.912 153.258,15.44 C153.571,14.231 152.839,13.284 151.631,13.284 L140.816,13.284 C139.711,13.284 138.399,14.178 138.082,15.44 L134.095,30.299 C133.775,31.456 134.513,32.454 135.719,32.454 L152.573,32.454 L151.37,37.022 L134.67,37.022 C130.887,37.022 128.629,33.976 129.628,30.299 L133.618,15.44 C134.616,11.711 138.501,8.716 142.284,8.716 L152.839,8.716 C156.621,8.716 158.877,11.711 157.878,15.44 C157.459,16.855 156.621,18.274 155.463,19.431 Z M181.996,0.011 L170.412,0.011 L169.21,4.582 L180.952,4.582 C182.155,4.582 182.841,5.528 182.426,6.735 L176.023,30.459 C175.706,31.614 174.34,32.557 173.187,32.557 L163.052,32.557 C161.841,32.557 161.103,31.614 161.42,30.459 L165.468,15.279 C165.779,14.072 167.043,13.181 168.245,13.181 L179.278,13.181 L180.433,8.716 L169.618,8.716 C165.832,8.716 161.948,11.657 161,15.279 L156.959,30.459 C155.956,34.081 158.217,37.022 162.055,37.022 L171.873,37.022 C175.649,37.022 179.539,34.081 180.483,30.459 L186.939,6.735 C187.937,3.007 185.726,0.011 181.996,0.011 Z M207.597,30.299 C206.6,33.976 202.716,37.022 198.934,37.022 L189.116,37.022 C185.335,37.022 183.021,33.976 184.02,30.299 L188.014,15.44 C189.013,11.711 192.896,8.716 196.677,8.716 L206.497,8.716 C210.328,8.716 212.59,11.711 211.593,15.44 L207.597,30.299 Z M205.499,13.284 L195.26,13.284 C194.048,13.284 192.845,14.231 192.472,15.44 L188.538,30.299 C188.22,31.509 188.905,32.454 190.113,32.454 L200.351,32.454 C201.563,32.454 202.823,31.456 203.139,30.299 L207.13,15.44 C207.443,14.231 206.706,13.284 205.499,13.284 Z M68.065,0 C66.204,1.042 64.624,2.61 63.637,4.463 L53.1,4.463 L54.302,0 L68.065,0 Z M71.792,5.832 L75.126,5.832 C75.086,6.124 75.028,6.42 74.947,6.723 L66.858,37.022 L62.197,37.022 L70.148,7.282 C70.32,6.619 71.046,5.99 71.792,5.832 Z M60.78,37.022 L68.826,6.929 C69.152,5.666 70.412,4.67 71.641,4.463 L87.084,4.463 L88.322,0 L73.105,0 C69.143,0 65.141,3.078 64.151,6.867 L56.113,37.022 L60.78,37.022 Z" id="Fill-1" fill="#FEFEFE"></path>
        </g>
    </g>
</svg>
