<?xml version="1.0" encoding="UTF-8"?>
<!DOCTYPE svg PUBLIC "-//W3C//DTD SVG 1.1//EN" "http://www.w3.org/Graphics/SVG/1.1/DTD/svg11.dtd">
<!-- Creator: CorelDRAW X7 -->
<svg xmlns="http://www.w3.org/2000/svg" xml:space="preserve" width="14.8329mm" height="18.2184mm" version="1.1" style="shape-rendering:geometricPrecision; text-rendering:geometricPrecision; image-rendering:optimizeQuality; fill-rule:evenodd; clip-rule:evenodd"
viewBox="0 0 28 34"
 xmlns:xlink="http://www.w3.org/1999/xlink">
 <defs>
  <style type="text/css">
   <![CDATA[
    .str1 {stroke:#FEFEFE;stroke-width:0.14143}
    .str0 {stroke:#FEFEFE;stroke-width:0.638474;stroke-linecap:round;stroke-linejoin:round}
    .fil0 {fill:none}
    .fil1 {fill:#FEFEFE}
   ]]>
  </style>
 </defs>
 <g id="Слой_x0020_1">
  <metadata id="CorelCorpID_0Corel-Layer"/>
  <g id="_2290088482112">
   <path id="Stroke-1" class="fil0 str0" d="M3 16c-2,2 -3,6 -2,9 1,5 6,7 10,6"/>
   <polygon id="Fill-3" class="fil1 str1" points="10,34 9,33 11,31 8,29 9,29 12,31 "/>
   <path id="Stroke-5" class="fil0 str0" d="M12 0c-4,0 -8,4 -8,8 0,1 0,2 1,3 0,0 0,0 0,0 0,0 0,0 0,0 0,0 0,0 0,0 0,0 0,0 0,0 0,0 0,0 0,0 0,0 0,0 0,0 0,0 0,0 0,0 1,3 2,6 3,10 0,0 0,0 1,1l4 0c0,-2 -1,-3 -1,-4 0,0 0,0 0,-1 0,0 0,0 0,0 0,0 0,0 0,0 0,0 0,0 0,0 0,0 0,0 0,0 0,0 0,0 0,0 0,0 0,0 0,0 -1,0 -1,-1 -1,-2 0,-4 4,-8 8,-8 1,0 1,0 1,0 0,-4 -4,-7 -8,-7zm1 22l-4 0 4 0zm-4 0l4 0c1,1 1,3 2,4 -1,0 -1,0 -1,0l-4 0c-1,0 -1,-1 -1,-2l0 -2z"/>
   <polygon id="Stroke-7" class="fil0 str0" points="13,22 9,22 "/>
   <g>
    <path id="Stroke-11" class="fil0 str0" d="M19 7c-4,0 -8,4 -8,8 0,1 0,2 1,2 0,0 0,0 0,0 0,0 0,0 0,0 0,0 0,0 0,0 0,0 0,0 0,0 0,0 0,0 0,0 0,0 0,0 0,0 0,1 0,1 0,1 1,3 2,6 3,9 0,1 0,1 1,1l7 0c0,0 1,0 1,-1 0,-3 1,-6 3,-9 0,0 0,0 0,-1 0,0 0,0 0,0 0,0 0,0 0,0 0,0 0,0 0,0 0,0 0,0 0,0l0 0 0 0 -1 0 0 0 0 0 0 0 0 0 0 0 0 0 0 0 -1 0 0 0 0 0 0 0 0 0 0 0 0 0 0 0 0 0 0 0 -1 0 0 0 0 0 0 0 0 0 0 0 0 0 0 0 -1 0 0 0 0 0 0 0 0 0 0 0 0 0 0 0 -1 0 0 0 0 0 0 0 0 0 0 0 0 0 0 0 -1 0 0 0 0 0 0 0 0 0 0 0 0 0 0 0 -1 0 0 0 0 0 0 0 0 0 0 0 0 0 0 0 0 0 0 0 -1 0 0 0 0 0 0 0 0 0 0 0 0 0 0 0 -1 0 0 0 0 0 0 0 0 0 0 0 0 0 0 0 -1 0 0 0 0 0 0 0 0 0 0 0 0 0 0 0 -1 0 0 0 0 0 0 0 0 0 0 0 0 0 0 0 -1 0 0 0 0 0 0 0 0 0 0 0 0 0 0 0 -1 0 0 0 0 0 0 0 0 0 0 0 0 0 0 0 -1 0 0 0 0 0 0 0 0 0 0 0 0 0 0 0 0 0 0 0 -1 0 0 0 0 0 0 0 0 0 0 0 0 0 0 0 0 0 0 0 0 0 0 0 0 0 1 0 0 0 0 0 0 0 0 0 0 0 0 0 0 0 0 0 0 0 1 0 0 0 0 0 0 0 0 0 0 0 0 0 0 0 1 0 0 0 0 0 0 0 0 0 0 0 0 0 0 0 1 0 0 0 0 0 0 0 0 0 0 0 0 0 0 0 1 0 0 0 0 0 0 0 0 0 0 0 0 0 0 0 1 0 0 0 0 0 0 0 0 0 0 0 0 0 0 0 1 0 0 0 0 0 0 0 0 0 0 0 0 0 0 0 1 0 0 0 0 0 0 0 0 0 0 0 0 0 0 0 0 0 0 0 1 0 0 0 0 0 0 0 0 0 0 0 0 0 0 0 1 0 0 0 0 0 0 0 0 0 0 0 0 0 0 0 1 0 0 0 0 0 0 0 0 0 0 0 0 0 0 0 1 0 0 0 0 0 0 0 0 0 0 0 0 0 0 0 1 0 0 0 0 0 0 0 0 0 0 0 0 0 0 0 0 0 0 0 1 0 0 0 0 0 0 0 0 0 0 0 0 0 0 0 1 0 0 0 0 0 0 0c0,-1 0,-1 0,-2 0,-4 -3,-8 -8,-8zm1 18l0 -4m2 4l1 -4 -1 4zm-4 0l0 -4 0 4zm-2 0l-1 -4 1 4zm4 6l3 0 -3 0zm0 -1l3 0 -3 0zm-4 1l1 0 -1 0zm0 -1l1 0 -1 0zm0 -2l7 0 0 3c0,1 -1,2 -2,2l-4 0c-1,0 -1,-1 -1,-2l0 -3z"/>
    <path id="Stroke-23" class="fil0 str0" d="M12 17c5,0 10,0 15,0l-15 0z"/>
   </g>
   <polygon id="Stroke-13" class="fil0 str0" points="23,28 16,28 "/>
   <polygon id="Stroke-15" class="fil0 str0" points="16,30 17,30 "/>
   <polygon id="Stroke-17" class="fil0 str0" points="16,31 17,31 "/>
   <polygon id="Stroke-19" class="fil0 str0" points="20,30 23,30 "/>
   <polygon id="Stroke-21" class="fil0 str0" points="20,31 23,31 "/>
   <polygon id="Stroke-25" class="fil0 str0" points="16,25 15,21 "/>
   <polygon id="Stroke-27" class="fil0 str0" points="18,25 18,21 "/>
   <line id="Stroke-29" class="fil0 str0" x1="22" y1="25" x2="23" y2= "21" />
   <line id="Stroke-31" class="fil0 str0" x1="20" y1="25" x2="20" y2= "21" />
  </g>
 </g>
</svg>
