<svg xmlns="http://www.w3.org/2000/svg" xmlns:xlink="http://www.w3.org/1999/xlink" width="38" height="64" viewBox="0 0 38 64">
    <defs>
        <path id="a" d="M26.18.25l-.458.191c-2.675 1.124-4.37 2.71-5.033 4.708-.752 2.262.043 4.37.444 5.216-.711.407-1.452.864-2.207 1.377 1.67-3.874-.724-7.582-.756-7.63l-.273-.411-.4.292c-2.338 1.71-3.615 3.643-3.792 5.74-.194 2.287.976 4.106 1.588 4.888a27.895 27.895 0 0 0-1.552 1.552c.356-3.992-2.767-6.776-2.808-6.812l-.373-.326-.307.388c-1.799 2.265-2.513 4.464-2.123 6.534.391 2.076 1.792 3.466 2.635 4.137a24.091 24.091 0 0 0-1.01 1.833c-.776-3.758-4.308-5.6-4.357-5.625l-.443-.223-.202.45c-1.179 2.635-1.324 4.94-.434 6.85.918 1.965 2.68 2.97 3.652 3.397-.167.666-.31 1.351-.425 2.06-1.803-3.33-5.636-4.138-5.69-4.148l-.486-.094-.07.488c-.407 2.855.088 5.11 1.473 6.706 1.428 1.647 3.41 2.133 4.46 2.277.021.712.07 1.442.147 2.188C4.735 33.224.55 33.51.495 33.513l-.495.04.066.49C.456 36.9 1.55 38.936 3.32 40.1c1.3.854 2.71 1.066 3.793 1.066.443 0 .825-.035 1.129-.077.228.772.518 1.53.862 2.27-3.459-2.414-7.599-.883-7.653-.863l-.464.178.204.45c1.192 2.629 2.825 4.275 4.856 4.89.632.191 1.25.267 1.833.267 1.529 0 2.798-.519 3.409-.82.438.72.948 1.49 1.53 2.291-4.096-1.766-7.93.9-7.978.935l-.403.288.312.384c1.82 2.247 3.818 3.431 5.94 3.519.085.004.17.005.254.005 2.227 0 3.922-1.207 4.634-1.813a36.802 36.802 0 0 0 1.772 1.756c-4.244-.449-7.113 2.942-7.15 2.986l-.314.38.4.292c1.852 1.348 3.639 2.026 5.328 2.026.448 0 .89-.048 1.326-.143 1.955-.431 3.266-1.726 3.954-2.594a53.282 53.282 0 0 0 5.42 3.544c1.12.643 2.201 1.858 2.442 2.233l1.589-1.006c-.343-.532-1.596-1.99-3.087-2.844a51.469 51.469 0 0 1-5.155-3.366c.582-.88 2.52-4.442-.275-9.49l-.297-.535-.442.423c-.127.12-3.071 2.97-2.701 6.04.022.185.058.366.104.544a36.974 36.974 0 0 1-1.363-1.35c.966-1.05 3.044-4.026 1.586-9.055l-.17-.587-.526.316c-.15.089-3.655 2.227-3.975 5.302-.01.092-.006.183-.01.275a32.101 32.101 0 0 1-1.087-1.657c1.356-.866 3.86-3.112 4.012-7.961l.019-.61-.6.14c-.169.04-4.166 1.01-5.42 3.84-.074.168-.136.34-.187.516a14.574 14.574 0 0 1-.703-1.859c1.284-.335 4.804-1.707 6.275-6.914l.167-.587-.617-.005c-.174-.004-4.288-.01-6.19 2.437-.17.222-.308.458-.432.703a29.39 29.39 0 0 1-.154-2.054c1.312-.012 5.087-.484 7.793-5.204l.305-.53-.595-.153c-.169-.044-4.16-1.04-6.602.881a4.275 4.275 0 0 0-.749.765c.11-.912.269-1.783.468-2.62.415.132 1.2.328 2.243.328 1.774 0 4.27-.57 6.865-2.991l.448-.418-.524-.32c-.147-.09-3.666-2.207-6.57-1.085a4.29 4.29 0 0 0-1.227.737c.363-.832.771-1.614 1.21-2.36.55.337 1.989 1.075 4.091 1.075 1.507 0 3.349-.384 5.427-1.575l.533-.306-.436-.43c-.123-.122-3.056-2.984-6.145-2.547a4.293 4.293 0 0 0-.89.233c.595-.674 1.213-1.3 1.844-1.878.7.74 2.727 2.483 6.284 2.483.874 0 1.839-.105 2.9-.356l.598-.141-.294-.536c-.082-.153-2.074-3.725-5.156-4.183a4.302 4.302 0 0 0-.75-.039c.578-.38 1.144-.722 1.693-1.034.76 1.22 3.069 4.001 8.322 4.003h.616l-.16-.589c-.047-.166-1.145-4.1-4.035-5.256a4.291 4.291 0 0 0-.505-.164c.657-.25 1.15-.41 1.397-.485.685.299 1.723.641 2.939.641.528 0 1.09-.065 1.664-.227 2.057-.577 3.74-2.225 5.006-4.899l.19-.4-.395-.21c-.127-.068-3.168-1.65-6.19-.54-1.673.614-2.986 1.928-3.919 3.9a25.97 25.97 0 0 0-1.546.574C27.843 4.96 26.369.766 26.35.712L26.18.25zm-4.594 5.184c.538-1.61 1.89-2.928 4.021-3.92.378 1.474 1.041 5.89-3.656 8.376-.349-.774-.989-2.588-.365-4.456zm5.935 3.045c.831-1.916 2.017-3.167 3.53-3.725 2.02-.744 4.138-.059 5.012.3-1.112 2.163-2.52 3.497-4.19 3.97-.48.136-.953.19-1.401.19-1.31 0-2.42-.465-2.951-.735zM14.643 9.812c.144-1.694 1.15-3.29 2.996-4.75.668 1.254 2.18 4.941-.874 8.283a28.19 28.19 0 0 0-.768.647c-.533-.698-1.516-2.265-1.354-4.18zm-5.588 5.963c-.31-1.668.232-3.468 1.619-5.357.899.955 3.03 3.712 1.769 7.278-.402.51-.79 1.047-1.163 1.604-.736-.607-1.905-1.807-2.225-3.525zm13.65-4.225c.425-.224.836-.432 1.225-.617.839-.22 1.623-.193 2.34.093 1.837.734 2.869 2.947 3.274 4.029-4.292-.217-6.198-2.494-6.839-3.505zm-5.344 3.692c1.138-.993 2.294-1.41 3.436-1.243 1.959.29 3.481 2.205 4.13 3.163-.73.135-1.406.193-2.029.193-3.108 0-4.889-1.454-5.537-2.113zm-12.19 7.737c-.716-1.541-.635-3.42.239-5.59 1.08.683 3.718 2.739 3.542 6.33a23.327 23.327 0 0 0-.744 2.133c-.865-.408-2.3-1.284-3.037-2.873zm7.677-2.436c.804-1.274 1.789-2.002 2.933-2.164 1.962-.282 3.972 1.127 4.869 1.86-1.678.854-3.16 1.135-4.384 1.135-1.667.001-2.858-.52-3.418-.83zm-2.666 5.96c.489-1.422 1.281-2.355 2.358-2.773 1.845-.715 4.127.196 5.168.707-2.203 1.858-4.267 2.303-5.737 2.303-.793 0-1.413-.13-1.789-.237zM3.487 31.18c-1.118-1.288-1.56-3.119-1.319-5.446 1.22.364 4.295 1.62 5.138 5.064a27.932 27.932 0 0 0-.105 2.316c-.94-.152-2.559-.604-3.714-1.934zm7.115-1.245c.975-.77 2.306-.974 3.446-.974.673 0 1.277.072 1.703.14-2.392 3.724-5.465 4.149-6.579 4.172.045-1.504.525-2.625 1.43-3.338zm-.153 6.196c1.207-1.559 3.635-1.948 4.794-2.044-1.415 4.187-4.293 5.337-5.369 5.627-.322-1.47-.129-2.674.575-3.583zm-6.617 3.186c-1.424-.94-2.348-2.58-2.752-4.883 1.335.02 4.91.418 6.583 3.955.069.418.125.83.211 1.261.036.176.083.349.125.524-.248.029-.55.052-.889.052-.945 0-2.172-.18-3.278-.91zm7.723 4.757a3.418 3.418 0 0 1 .265-1.725c.795-1.801 3.058-2.756 4.16-3.126-.326 3.957-2.389 5.809-3.51 6.533a43.078 43.078 0 0 1-.915-1.682zm-5.243 3.044c-1.634-.499-2.99-1.812-4.036-3.905 1.472-.41 5.906-1.174 8.52 3.447-.557.261-1.653.685-2.93.685a5.29 5.29 0 0 1-1.554-.227zm9.042 2.837c-.31-.63-.44-1.27-.373-1.914.201-1.956 2.06-3.552 2.995-4.238.975 4.131-.682 6.576-1.488 7.478-.407-.45-.782-.892-1.134-1.326zm3.97 2.71c-.238-1.952 1.222-3.916 1.981-4.789 1.945 3.973.7 6.793.137 7.746-1.268-.826-1.98-1.82-2.118-2.958zm-8.604 1.28c-1.709-.073-3.355-1.005-4.9-2.77 1.322-.765 5.418-2.612 9.121 1.204-.63.525-2.116 1.571-3.995 1.571-.075 0-.15 0-.226-.005zm.555 4.09c.951-.947 3.761-3.241 7.52-1.926.43.362.882.725 1.35 1.09-.602.754-1.751 1.894-3.419 2.258a5.19 5.19 0 0 1-1.106.118c-1.36 0-2.816-.515-4.345-1.54z"/>
        <linearGradient id="b" x1="0%" x2="99.998%" y1="50%" y2="50%">
            <stop offset="0%" stop-color="#791717"/>
            <stop offset="100%" stop-color="#AA2A2A"/>
        </linearGradient>
    </defs>
    <g fill="none" fill-rule="evenodd">
        <mask id="c" fill="#fff">
            <use xlink:href="#a"/>
        </mask>
        <path fill="url(#b)" d="M26.18.25l-.458.191c-2.675 1.124-4.37 2.71-5.033 4.708-.752 2.262.043 4.37.444 5.216-.711.407-1.452.864-2.207 1.377 1.67-3.874-.724-7.582-.756-7.63l-.273-.411-.4.292c-2.338 1.71-3.615 3.643-3.792 5.74-.194 2.287.976 4.106 1.588 4.888a27.895 27.895 0 0 0-1.552 1.552c.356-3.992-2.767-6.776-2.808-6.812l-.373-.326-.307.388c-1.799 2.265-2.513 4.464-2.123 6.534.391 2.076 1.792 3.466 2.635 4.137a24.091 24.091 0 0 0-1.01 1.833c-.776-3.758-4.308-5.6-4.357-5.625l-.443-.223-.202.45c-1.179 2.635-1.324 4.94-.434 6.85.918 1.965 2.68 2.97 3.652 3.397-.167.666-.31 1.351-.425 2.06-1.803-3.33-5.636-4.138-5.69-4.148l-.486-.094-.07.488c-.407 2.855.088 5.11 1.473 6.706 1.428 1.647 3.41 2.133 4.46 2.277.021.712.07 1.442.147 2.188C4.735 33.224.55 33.51.495 33.513l-.495.04.066.49C.456 36.9 1.55 38.936 3.32 40.1c1.3.854 2.71 1.066 3.793 1.066.443 0 .825-.035 1.129-.077.228.772.518 1.53.862 2.27-3.459-2.414-7.599-.883-7.653-.863l-.464.178.204.45c1.192 2.629 2.825 4.275 4.856 4.89.632.191 1.25.267 1.833.267 1.529 0 2.798-.519 3.409-.82.438.72.948 1.49 1.53 2.291-4.096-1.766-7.93.9-7.978.935l-.403.288.312.384c1.82 2.247 3.818 3.431 5.94 3.519.085.004.17.005.254.005 2.227 0 3.922-1.207 4.634-1.813a36.802 36.802 0 0 0 1.772 1.756c-4.244-.449-7.113 2.942-7.15 2.986l-.314.38.4.292c1.852 1.348 3.639 2.026 5.328 2.026.448 0 .89-.048 1.326-.143 1.955-.431 3.266-1.726 3.954-2.594a53.282 53.282 0 0 0 5.42 3.544c1.12.643 2.201 1.858 2.442 2.233l1.589-1.006c-.343-.532-1.596-1.99-3.087-2.844a51.469 51.469 0 0 1-5.155-3.366c.582-.88 2.52-4.442-.275-9.49l-.297-.535-.442.423c-.127.12-3.071 2.97-2.701 6.04.022.185.058.366.104.544a36.974 36.974 0 0 1-1.363-1.35c.966-1.05 3.044-4.026 1.586-9.055l-.17-.587-.526.316c-.15.089-3.655 2.227-3.975 5.302-.01.092-.006.183-.01.275a32.101 32.101 0 0 1-1.087-1.657c1.356-.866 3.86-3.112 4.012-7.961l.019-.61-.6.14c-.169.04-4.166 1.01-5.42 3.84-.074.168-.136.34-.187.516a14.574 14.574 0 0 1-.703-1.859c1.284-.335 4.804-1.707 6.275-6.914l.167-.587-.617-.005c-.174-.004-4.288-.01-6.19 2.437-.17.222-.308.458-.432.703a29.39 29.39 0 0 1-.154-2.054c1.312-.012 5.087-.484 7.793-5.204l.305-.53-.595-.153c-.169-.044-4.16-1.04-6.602.881a4.275 4.275 0 0 0-.749.765c.11-.912.269-1.783.468-2.62.415.132 1.2.328 2.243.328 1.774 0 4.27-.57 6.865-2.991l.448-.418-.524-.32c-.147-.09-3.666-2.207-6.57-1.085a4.29 4.29 0 0 0-1.227.737c.363-.832.771-1.614 1.21-2.36.55.337 1.989 1.075 4.091 1.075 1.507 0 3.349-.384 5.427-1.575l.533-.306-.436-.43c-.123-.122-3.056-2.984-6.145-2.547a4.293 4.293 0 0 0-.89.233c.595-.674 1.213-1.3 1.844-1.878.7.74 2.727 2.483 6.284 2.483.874 0 1.839-.105 2.9-.356l.598-.141-.294-.536c-.082-.153-2.074-3.725-5.156-4.183a4.302 4.302 0 0 0-.75-.039c.578-.38 1.144-.722 1.693-1.034.76 1.22 3.069 4.001 8.322 4.003h.616l-.16-.589c-.047-.166-1.145-4.1-4.035-5.256a4.291 4.291 0 0 0-.505-.164c.657-.25 1.15-.41 1.397-.485.685.299 1.723.641 2.939.641.528 0 1.09-.065 1.664-.227 2.057-.577 3.74-2.225 5.006-4.899l.19-.4-.395-.21c-.127-.068-3.168-1.65-6.19-.54-1.673.614-2.986 1.928-3.919 3.9a25.97 25.97 0 0 0-1.546.574C27.843 4.96 26.369.766 26.35.712L26.18.25zm-4.594 5.184c.538-1.61 1.89-2.928 4.021-3.92.378 1.474 1.041 5.89-3.656 8.376-.349-.774-.989-2.588-.365-4.456zm5.935 3.045c.831-1.916 2.017-3.167 3.53-3.725 2.02-.744 4.138-.059 5.012.3-1.112 2.163-2.52 3.497-4.19 3.97-.48.136-.953.19-1.401.19-1.31 0-2.42-.465-2.951-.735zM14.643 9.812c.144-1.694 1.15-3.29 2.996-4.75.668 1.254 2.18 4.941-.874 8.283a28.19 28.19 0 0 0-.768.647c-.533-.698-1.516-2.265-1.354-4.18zm-5.588 5.963c-.31-1.668.232-3.468 1.619-5.357.899.955 3.03 3.712 1.769 7.278-.402.51-.79 1.047-1.163 1.604-.736-.607-1.905-1.807-2.225-3.525zm13.65-4.225c.425-.224.836-.432 1.225-.617.839-.22 1.623-.193 2.34.093 1.837.734 2.869 2.947 3.274 4.029-4.292-.217-6.198-2.494-6.839-3.505zm-5.344 3.692c1.138-.993 2.294-1.41 3.436-1.243 1.959.29 3.481 2.205 4.13 3.163-.73.135-1.406.193-2.029.193-3.108 0-4.889-1.454-5.537-2.113zm-12.19 7.737c-.716-1.541-.635-3.42.239-5.59 1.08.683 3.718 2.739 3.542 6.33a23.327 23.327 0 0 0-.744 2.133c-.865-.408-2.3-1.284-3.037-2.873zm7.677-2.436c.804-1.274 1.789-2.002 2.933-2.164 1.962-.282 3.972 1.127 4.869 1.86-1.678.854-3.16 1.135-4.384 1.135-1.667.001-2.858-.52-3.418-.83zm-2.666 5.96c.489-1.422 1.281-2.355 2.358-2.773 1.845-.715 4.127.196 5.168.707-2.203 1.858-4.267 2.303-5.737 2.303-.793 0-1.413-.13-1.789-.237zM3.487 31.18c-1.118-1.288-1.56-3.119-1.319-5.446 1.22.364 4.295 1.62 5.138 5.064a27.932 27.932 0 0 0-.105 2.316c-.94-.152-2.559-.604-3.714-1.934zm7.115-1.245c.975-.77 2.306-.974 3.446-.974.673 0 1.277.072 1.703.14-2.392 3.724-5.465 4.149-6.579 4.172.045-1.504.525-2.625 1.43-3.338zm-.153 6.196c1.207-1.559 3.635-1.948 4.794-2.044-1.415 4.187-4.293 5.337-5.369 5.627-.322-1.47-.129-2.674.575-3.583zm-6.617 3.186c-1.424-.94-2.348-2.58-2.752-4.883 1.335.02 4.91.418 6.583 3.955.069.418.125.83.211 1.261.036.176.083.349.125.524-.248.029-.55.052-.889.052-.945 0-2.172-.18-3.278-.91zm7.723 4.757a3.418 3.418 0 0 1 .265-1.725c.795-1.801 3.058-2.756 4.16-3.126-.326 3.957-2.389 5.809-3.51 6.533a43.078 43.078 0 0 1-.915-1.682zm-5.243 3.044c-1.634-.499-2.99-1.812-4.036-3.905 1.472-.41 5.906-1.174 8.52 3.447-.557.261-1.653.685-2.93.685a5.29 5.29 0 0 1-1.554-.227zm9.042 2.837c-.31-.63-.44-1.27-.373-1.914.201-1.956 2.06-3.552 2.995-4.238.975 4.131-.682 6.576-1.488 7.478-.407-.45-.782-.892-1.134-1.326zm3.97 2.71c-.238-1.952 1.222-3.916 1.981-4.789 1.945 3.973.7 6.793.137 7.746-1.268-.826-1.98-1.82-2.118-2.958zm-8.604 1.28c-1.709-.073-3.355-1.005-4.9-2.77 1.322-.765 5.418-2.612 9.121 1.204-.63.525-2.116 1.571-3.995 1.571-.075 0-.15 0-.226-.005zm.555 4.09c.951-.947 3.761-3.241 7.52-1.926.43.362.882.725 1.35 1.09-.602.754-1.751 1.894-3.419 2.258a5.19 5.19 0 0 1-1.106.118c-1.36 0-2.816-.515-4.345-1.54z" mask="url(#c)"/>
    </g>
</svg>
