<?xml version="1.0" encoding="UTF-8"?>
<!DOCTYPE svg PUBLIC "-//W3C//DTD SVG 1.1//EN" "http://www.w3.org/Graphics/SVG/1.1/DTD/svg11.dtd">
<!-- Creator: CorelDRAW X7 -->
<svg xmlns="http://www.w3.org/2000/svg" xml:space="preserve" width="14.308mm" height="15.3059mm" version="1.1" style="shape-rendering:geometricPrecision; text-rendering:geometricPrecision; image-rendering:optimizeQuality; fill-rule:evenodd; clip-rule:evenodd"
viewBox="0 0 28 30"
 xmlns:xlink="http://www.w3.org/1999/xlink">
 <defs>
  <style type="text/css">
   <![CDATA[
    .str1 {stroke:#FEFEFE;stroke-width:0.678741}
    .str0 {stroke:#FEFEFE;stroke-width:0.678741;stroke-linecap:round;stroke-linejoin:round}
    .fil0 {fill:none}
   ]]>
  </style>
 </defs>
 <g id="Слой_x0020_1">
  <metadata id="CorelCorpID_0Corel-Layer"/>
  <g id="_2290094647312">
   <g id="Page-1">
    <g id="Main-1920">
     <g id="Group-14">
      <g id="Group-13">
       <line id="Stroke-1" class="fil0 str0" x1="15" y1="22" x2="13" y2= "10" />
       <g id="Group-12">
        <path id="Stroke-2" class="fil0 str1" d="M12 18c-1,1 -3,1 -3,0 -1,-1 -1,-2 -1,-3 1,-1 3,-1 3,0 1,1 1,2 1,3z"/>
        <path id="Stroke-4" class="fil0 str1" d="M20 17c-1,1 -2,1 -3,0 -1,-1 -1,-2 0,-3 1,-1 2,-1 3,0 1,1 1,2 0,3z"/>
        <path id="Stroke-6" class="fil0 str0" d="M25 6l2 8c0,0 0,1 -1,2l-12 13c-1,1 -2,1 -3,0l-10 -8c-1,-1 -1,-3 0,-4l12 -13c0,-1 1,-1 2,-1l8 1c1,0 2,0 2,2z"/>
        <path id="Stroke-8" class="fil0 str0" d="M22 9c0,0 -1,0 -2,0 0,-1 0,-2 0,-2 1,-1 2,-1 2,0 1,0 1,1 0,2z"/>
        <line id="Stroke-10" class="fil0 str0" x1="21" y1="8" x2="28" y2= "0" />
       </g>
      </g>
     </g>
    </g>
   </g>
  </g>
 </g>
</svg>
